<mxfile host="app.diagrams.net" modified="2021-02-11T17:40:11.487Z" agent="5.0 (Windows NT 10.0; Win64; x64) AppleWebKit/537.36 (KHTML, like Gecko) Chrome/88.0.4324.150 Safari/537.36" etag="s_7YI5H5BFrDAOwGo0Xg" version="14.2.9" type="github">
  <diagram id="N-ru6f8Y_OG2epu-IVS1" name="Page-1">
    <mxGraphModel dx="1422" dy="762" grid="1" gridSize="10" guides="1" tooltips="1" connect="1" arrows="1" fold="1" page="1" pageScale="1" pageWidth="827" pageHeight="1169" math="0" shadow="0">
      <root>
        <mxCell id="0" />
        <mxCell id="1" parent="0" />
        <mxCell id="39zNZT4erERow79e_R9T-37" value="Azure" style="rounded=1;whiteSpace=wrap;html=1;dashed=1;verticalAlign=top;" vertex="1" parent="1">
          <mxGeometry x="290" y="10" width="950" height="490" as="geometry" />
        </mxCell>
        <mxCell id="39zNZT4erERow79e_R9T-7" value="Security Subscription" style="rounded=1;whiteSpace=wrap;html=1;verticalAlign=top;" vertex="1" parent="1">
          <mxGeometry x="300" y="60" width="160" height="130" as="geometry" />
        </mxCell>
        <mxCell id="39zNZT4erERow79e_R9T-6" value="Webhook&lt;br&gt;(on commit)" style="edgeStyle=orthogonalEdgeStyle;rounded=0;orthogonalLoop=1;jettySize=auto;html=1;entryX=0;entryY=0.5;entryDx=0;entryDy=0;" edge="1" parent="1" source="39zNZT4erERow79e_R9T-1" target="39zNZT4erERow79e_R9T-4">
          <mxGeometry relative="1" as="geometry" />
        </mxCell>
        <mxCell id="39zNZT4erERow79e_R9T-1" value="GitHub" style="rounded=1;whiteSpace=wrap;html=1;verticalAlign=top;" vertex="1" parent="1">
          <mxGeometry x="80" y="120" width="120" height="60" as="geometry" />
        </mxCell>
        <mxCell id="39zNZT4erERow79e_R9T-3" value="" style="shape=image;html=1;verticalAlign=top;verticalLabelPosition=bottom;labelBackgroundColor=#ffffff;imageAspect=0;aspect=fixed;image=https://cdn1.iconfinder.com/data/icons/logotypes/32/github-128.png" vertex="1" parent="1">
          <mxGeometry x="125" y="143" width="30" height="30" as="geometry" />
        </mxCell>
        <mxCell id="39zNZT4erERow79e_R9T-4" value="Azure App Gateway" style="rounded=1;whiteSpace=wrap;html=1;verticalAlign=top;" vertex="1" parent="1">
          <mxGeometry x="320" y="120" width="120" height="60" as="geometry" />
        </mxCell>
        <mxCell id="39zNZT4erERow79e_R9T-5" value="" style="aspect=fixed;html=1;points=[];align=center;image;fontSize=12;image=img/lib/mscae/Application_Gateway.svg;" vertex="1" parent="1">
          <mxGeometry x="365" y="143" width="30" height="30" as="geometry" />
        </mxCell>
        <mxCell id="39zNZT4erERow79e_R9T-8" value="" style="aspect=fixed;html=1;points=[];align=center;image;fontSize=12;image=img/lib/mscae/Key.svg;" vertex="1" parent="1">
          <mxGeometry x="370.70000000000005" y="80" width="18.6" height="30" as="geometry" />
        </mxCell>
        <mxCell id="39zNZT4erERow79e_R9T-9" value="FFC Shared Subscription" style="rounded=1;whiteSpace=wrap;html=1;verticalAlign=top;" vertex="1" parent="1">
          <mxGeometry x="550" y="60" width="390" height="130" as="geometry" />
        </mxCell>
        <mxCell id="39zNZT4erERow79e_R9T-16" style="edgeStyle=orthogonalEdgeStyle;rounded=0;orthogonalLoop=1;jettySize=auto;html=1;entryX=0;entryY=0.5;entryDx=0;entryDy=0;" edge="1" parent="1" target="39zNZT4erERow79e_R9T-15">
          <mxGeometry relative="1" as="geometry">
            <mxPoint x="670" y="149.5" as="sourcePoint" />
            <mxPoint x="790" y="149.5" as="targetPoint" />
          </mxGeometry>
        </mxCell>
        <mxCell id="39zNZT4erERow79e_R9T-33" value="Webhook&lt;br&gt;secret &lt;br&gt;authenticated" style="edgeLabel;html=1;align=center;verticalAlign=middle;resizable=0;points=[];" vertex="1" connectable="0" parent="39zNZT4erERow79e_R9T-16">
          <mxGeometry x="0.25" y="-1" relative="1" as="geometry">
            <mxPoint x="-7.5" y="-1" as="offset" />
          </mxGeometry>
        </mxCell>
        <mxCell id="39zNZT4erERow79e_R9T-10" value="Azure App Gateway" style="rounded=1;whiteSpace=wrap;html=1;verticalAlign=top;" vertex="1" parent="1">
          <mxGeometry x="570" y="120" width="120" height="60" as="geometry" />
        </mxCell>
        <mxCell id="39zNZT4erERow79e_R9T-12" value="" style="aspect=fixed;html=1;points=[];align=center;image;fontSize=12;image=img/lib/mscae/Key.svg;" vertex="1" parent="1">
          <mxGeometry x="735.7" y="80" width="18.6" height="30" as="geometry" />
        </mxCell>
        <mxCell id="39zNZT4erERow79e_R9T-13" value="" style="aspect=fixed;html=1;points=[];align=center;image;fontSize=12;image=img/lib/mscae/API_Management.svg;" vertex="1" parent="1">
          <mxGeometry x="615" y="147.8" width="30" height="25.2" as="geometry" />
        </mxCell>
        <mxCell id="39zNZT4erERow79e_R9T-14" style="edgeStyle=orthogonalEdgeStyle;rounded=0;orthogonalLoop=1;jettySize=auto;html=1;entryX=0;entryY=0.5;entryDx=0;entryDy=0;" edge="1" parent="1" source="39zNZT4erERow79e_R9T-4" target="39zNZT4erERow79e_R9T-10">
          <mxGeometry relative="1" as="geometry" />
        </mxCell>
        <mxCell id="39zNZT4erERow79e_R9T-31" value="WAF routed" style="edgeLabel;html=1;align=center;verticalAlign=middle;resizable=0;points=[];" vertex="1" connectable="0" parent="39zNZT4erERow79e_R9T-14">
          <mxGeometry x="0.2" y="-3" relative="1" as="geometry">
            <mxPoint x="-18" y="-3" as="offset" />
          </mxGeometry>
        </mxCell>
        <mxCell id="39zNZT4erERow79e_R9T-15" value="Jenkins CI" style="rounded=1;whiteSpace=wrap;html=1;verticalAlign=top;" vertex="1" parent="1">
          <mxGeometry x="810" y="120" width="120" height="60" as="geometry" />
        </mxCell>
        <mxCell id="39zNZT4erERow79e_R9T-18" value="FFC Sandpit Subscription" style="rounded=1;whiteSpace=wrap;html=1;verticalAlign=top;" vertex="1" parent="1">
          <mxGeometry x="1060" y="60" width="160" height="410" as="geometry" />
        </mxCell>
        <mxCell id="39zNZT4erERow79e_R9T-19" value="&lt;font style=&quot;font-size: 10px&quot;&gt;Azure Kubernetes Service&lt;/font&gt;" style="rounded=1;whiteSpace=wrap;html=1;verticalAlign=top;" vertex="1" parent="1">
          <mxGeometry x="1080" y="120" width="120" height="60" as="geometry" />
        </mxCell>
        <mxCell id="39zNZT4erERow79e_R9T-21" value="" style="aspect=fixed;html=1;points=[];align=center;image;fontSize=12;image=img/lib/mscae/Key.svg;" vertex="1" parent="1">
          <mxGeometry x="1130.7" y="80" width="18.6" height="30" as="geometry" />
        </mxCell>
        <mxCell id="39zNZT4erERow79e_R9T-23" value="" style="aspect=fixed;html=1;points=[];align=center;image;fontSize=12;image=img/lib/azure2/compute/Kubernetes_Services.svg;" vertex="1" parent="1">
          <mxGeometry x="1125" y="146.53" width="30" height="26.47" as="geometry" />
        </mxCell>
        <mxCell id="39zNZT4erERow79e_R9T-22" value="Dynamic&lt;br&gt;PR&lt;br&gt;deployment&lt;br&gt;(Managed Identity)" style="edgeStyle=orthogonalEdgeStyle;rounded=0;orthogonalLoop=1;jettySize=auto;html=1;" edge="1" parent="1" source="39zNZT4erERow79e_R9T-15" target="39zNZT4erERow79e_R9T-19">
          <mxGeometry y="30" relative="1" as="geometry">
            <mxPoint as="offset" />
          </mxGeometry>
        </mxCell>
        <mxCell id="39zNZT4erERow79e_R9T-24" value="&lt;font style=&quot;font-size: 12px&quot;&gt;Azure Service Bus&lt;/font&gt;" style="rounded=1;whiteSpace=wrap;html=1;verticalAlign=top;" vertex="1" parent="1">
          <mxGeometry x="1080" y="190" width="120" height="60" as="geometry" />
        </mxCell>
        <mxCell id="39zNZT4erERow79e_R9T-25" value="" style="aspect=fixed;html=1;points=[];align=center;image;fontSize=12;image=img/lib/mscae/Service_Bus.svg;" vertex="1" parent="1">
          <mxGeometry x="1125" y="216" width="30" height="30" as="geometry" />
        </mxCell>
        <mxCell id="39zNZT4erERow79e_R9T-26" value="&lt;font style=&quot;font-size: 12px&quot;&gt;Azure PostgreSQL&lt;/font&gt;" style="rounded=1;whiteSpace=wrap;html=1;verticalAlign=top;" vertex="1" parent="1">
          <mxGeometry x="1080" y="260" width="120" height="60" as="geometry" />
        </mxCell>
        <mxCell id="39zNZT4erERow79e_R9T-27" value="" style="aspect=fixed;html=1;points=[];align=center;image;fontSize=12;image=img/lib/mscae/Azure_Database_for_PostgreSQL_servers.svg;" vertex="1" parent="1">
          <mxGeometry x="1128.6" y="287" width="22.8" height="30" as="geometry" />
        </mxCell>
        <mxCell id="39zNZT4erERow79e_R9T-29" style="edgeStyle=orthogonalEdgeStyle;rounded=0;orthogonalLoop=1;jettySize=auto;html=1;entryX=0;entryY=0.5;entryDx=0;entryDy=0;" edge="1" parent="1" source="39zNZT4erERow79e_R9T-15" target="39zNZT4erERow79e_R9T-26">
          <mxGeometry relative="1" as="geometry">
            <Array as="points">
              <mxPoint x="1010" y="150" />
              <mxPoint x="1010" y="290" />
            </Array>
          </mxGeometry>
        </mxCell>
        <mxCell id="39zNZT4erERow79e_R9T-28" style="edgeStyle=orthogonalEdgeStyle;rounded=0;orthogonalLoop=1;jettySize=auto;html=1;entryX=0;entryY=0.5;entryDx=0;entryDy=0;" edge="1" parent="1" source="39zNZT4erERow79e_R9T-15" target="39zNZT4erERow79e_R9T-24">
          <mxGeometry relative="1" as="geometry">
            <Array as="points">
              <mxPoint x="1010" y="150" />
              <mxPoint x="1010" y="220" />
            </Array>
          </mxGeometry>
        </mxCell>
        <mxCell id="39zNZT4erERow79e_R9T-34" value="&lt;font style=&quot;font-size: 12px&quot;&gt;Azure Redis&lt;/font&gt;" style="rounded=1;whiteSpace=wrap;html=1;verticalAlign=top;" vertex="1" parent="1">
          <mxGeometry x="1080" y="330" width="120" height="60" as="geometry" />
        </mxCell>
        <mxCell id="39zNZT4erERow79e_R9T-35" value="" style="aspect=fixed;html=1;points=[];align=center;image;fontSize=12;image=img/lib/mscae/Cache_Redis_Product.svg;" vertex="1" parent="1">
          <mxGeometry x="1125" y="360" width="30" height="25.2" as="geometry" />
        </mxCell>
        <mxCell id="39zNZT4erERow79e_R9T-36" style="edgeStyle=orthogonalEdgeStyle;rounded=0;orthogonalLoop=1;jettySize=auto;html=1;entryX=0;entryY=0.5;entryDx=0;entryDy=0;" edge="1" parent="1" source="39zNZT4erERow79e_R9T-15" target="39zNZT4erERow79e_R9T-34">
          <mxGeometry relative="1" as="geometry">
            <Array as="points">
              <mxPoint x="1010" y="150" />
              <mxPoint x="1010" y="360" />
            </Array>
          </mxGeometry>
        </mxCell>
        <mxCell id="39zNZT4erERow79e_R9T-38" value="" style="aspect=fixed;html=1;points=[];align=center;image;fontSize=12;image=img/lib/mscae/VM_Linux.svg;dashed=1;" vertex="1" parent="1">
          <mxGeometry x="855" y="145.97000000000003" width="30" height="27.6" as="geometry" />
        </mxCell>
        <mxCell id="39zNZT4erERow79e_R9T-39" value="&lt;font style=&quot;font-size: 12px&quot;&gt;Azure Event Hubs&lt;/font&gt;" style="rounded=1;whiteSpace=wrap;html=1;verticalAlign=top;" vertex="1" parent="1">
          <mxGeometry x="1080" y="400" width="120" height="60" as="geometry" />
        </mxCell>
        <mxCell id="39zNZT4erERow79e_R9T-40" value="" style="aspect=fixed;html=1;points=[];align=center;image;fontSize=12;image=img/lib/mscae/Event_Hubs.svg;dashed=1;" vertex="1" parent="1">
          <mxGeometry x="1125" y="424.75" width="30" height="31.25" as="geometry" />
        </mxCell>
        <mxCell id="39zNZT4erERow79e_R9T-41" style="edgeStyle=orthogonalEdgeStyle;rounded=0;orthogonalLoop=1;jettySize=auto;html=1;entryX=0;entryY=0.5;entryDx=0;entryDy=0;" edge="1" parent="1" source="39zNZT4erERow79e_R9T-15" target="39zNZT4erERow79e_R9T-39">
          <mxGeometry relative="1" as="geometry">
            <Array as="points">
              <mxPoint x="1010" y="150" />
              <mxPoint x="1010" y="430" />
            </Array>
          </mxGeometry>
        </mxCell>
        <mxCell id="39zNZT4erERow79e_R9T-43" value="" style="shape=image;verticalLabelPosition=bottom;labelBackgroundColor=#ffffff;verticalAlign=top;aspect=fixed;imageAspect=0;image=data:image/png,iVBORw0KGgoAAAANSUhEUgAABPQAAALACAYAAAAUgizuAAAgAElEQVR4AezdP44VybYv4DuUN4I7AkbACBgBIwD3Ghi4ZWIh4SIsvAM6DkKoJZBwoIWBWkKCNjAa6WLgPKOeFv326c2mqth/IjLWivxCalUV1I6M/CIyW/kjIuO/zhUCBAgQIECAAAECBAgQIECAAAECBMoI/FeZlmooAQIECBAgQIAAAQIECBAgQIAAAQLnAj2DgAABAgQIECBAgAABAgQIECBAgEAhAYFeoc7SVAIECBAgQIAAAQIECBAgQIAAAQICPWOAAAECBAgQIECAAAECBAgQIECAQCEBgV6hztJUAgQIECBAgAABAgQIECBAgAABAgI9Y4AAAQIECBAgQIAAAQIECBAgQIBAIQGBXqHO0lQCBAgQIECAAAECBAgQIECAAAECAj1jgAABAgQIECBAgAABAgQIECBAgEAhAYFeoc7SVAIECBAgQIAAAQIECBAgQIAAAQICPWOAAAECBAgQIECAAAECBAgQIECAQCEBgV6hztJUAgQIECBAgAABAgQIECBAgAABAgI9Y4AAAQIECBAgQIAAAQIECBAgQIBAIQGBXqHO0lQCBAgQIECAAAECBAgQIECAAAECAj1jgAABAgQIECBAgAABAgQIECBAgEAhAYFeoc7SVAIECBAgQIAAAQIECBAgQIAAAQICPWOAAAECBAgQIECAAAECBAgQIECAQCEBgV6hztJUAgQIECBAgAABAgQIECBAgAABAgI9Y4AAAQIECBAgQIAAAQIECBAgQIBAIQGBXqHO0lQCBAgQIECAAAECBAgQIECAAAECAj1jgAABAgQIECBAgAABAgQIECBAgEAhAYFeoc7SVAIECBAgQIAAAQIECBAgQIAAAQICPWOAAAECBAgQIECAAAECBAgQIECAQCEBgV6hztJUAgQIECBAgAABAgQIECBAgAABAgI9Y4AAAQIECBAgQIAAAQIECBAgQIBAIQGBXqHO0lQCBAgQIECAAAECBAgQIECAAAECAj1jgAABAgQIECBAgAABAgQIECBAgEAhAYFeoc7SVAIECBAgQIAAAQIECBAgQIAAAQICPWOAAAECBAgQIECAAAECBAgQIECAQCEBgV6hztJUAgQIECBAgAABAgQIECBAgAABAgI9Y4AAAQIECBAgQIAAAQIECBAgQIBAIQGBXqHO0lQCBAgQIECAAAECBAgQIECAAAECAj1jgAABAgQIECBAgAABAgQIECBAgEAhAYFeoc7SVAIECBAgQIAAAQIECBAgQIAAAQICPWOAAAECBAgQIECAAAECBAgQIECAQCEBgV6hztJUAgQIECBAgAABAgQIECBAgAABAgI9Y4AAAQIECBAgQIAAAQIECBAgQIBAIQGBXqHO0lQCBAgQIECAAAECBAgQIECAAAECAj1jgAABAgQIECBAgAABAgQIECBAgEAhAYFeoc7SVAIECBAgQIAAAQIECBAgQIAAAQICPWOAAAECBAgQIECAAAECBAgQIECAQCEBgV6hztJUAgQIECBAgAABAgQIECBAgAABAgI9Y4AAAQIECBAgQIAAAQIECBAgQIBAIQGBXqHO0lQCBAgQIECAAAECBAgQIECAAAECAj1jgAABAgQIECBAgAABAgQIECBAgEAhAYFeoc7SVAIECBAgQIAAAQIECBAgQIAAAQICPWOAAAECBAgQIECAAAECBAgQIECAQCEBgV6hztJUAgQIECBAgAABAgQIECBAgAABAgI9Y4AAAQIECBAgQIAAAQIECBAgQIBAIQGBXqHO0lQCBAgQIECAAAECBAgQIECAAAECAj1jgAABAgQIECBAgAABAgQIECBAgEAhAYFeoc7SVAIECBAgQIAAAQIECBAgQIAAAQICPWOAAAECBAgQIECAAAECBAgQIECAQCEBgV6hztJUAgQIECBAgAABAgQIECBAgAABAgI9Y4AAAQIECBAgQIAAAQIECBAgQIBAIQGBXqHO0lQCBAgQIECAAAECBAgQIECAAAECAj1jgAABAgQIECBAgAABAgQIECBAgEAhAYFeoc7SVAIECBAgQIAAAQIECBAgQIAAAQICPWOAAAECBAgQIECAAAECBAgQIECAQCEBgV6hztJUAgQIECBAgAABAgQIECBAgAABAgI9Y4AAAQIECBAgQIAAAQIECBAgQIBAIQGBXqHO0lQCBAgQIECAAAECBAgQIECAAAECAj1jgAABAgQIECBAgAABAgQIECBAgEAhAYFeoc7SVAIECBAgQIAAAQIECBAgQIAAAQICPWOAAAECBAgQIECAAAECBAgQIECAQCEBgV6hztJUAgQIECBAgAABAgQIECBAgAABAgI9Y4AAAQIECBAgQIAAAQIECBAgQIBAIQGBXqHO0lQCBAgQIECAAAECBAgQIECAAAECAj1jgAABAgQIECBAgAABAgQIECBAgEAhAYFeoc7SVAIECBAgQIAAAQIECBAgQIAAAQICPWOAAAECBAgQIECAAAECBAgQIECAQCEBgV6hztJUAgQIECBAgAABAgQIECBAgAABAgI9Y4AAAQIECBAgQIAAAQIECBAgQIBAIQGBXqHO0lQCBAgQIECAAAECBAgQIECAAAECAj1jgAABAgQIECBAgAABAgQIECBAgEAhAYFeoc7SVAIECBAgQIAAAQIECBAgQIAAAQICPWOAAAECBAgQIECAAAECBAgQIECAQCEBgV6hztJUAgQIECBAgAABAgQIECBAgAABAgI9Y4AAAQIECBAgQIAAAQIECBAgQIBAIQGBXqHO0lQCBAgQIECAAAECBAgQIECAAAECAj1jgAABAgQIECBAgAABAgQIECBAgEAhAYFeoc7SVAIECBAgQIAAAQIECBAgQIAAAQICPWOAAAECBAgQIECAAAECBAgQIECAQCEBgV6hztJUAgQIECBAgAABAgQIECBAgAABAgI9Y4AAAQIECBAgQIAAAQIECBAgQIBAIQGBXqHO0lQCBAgQIECAAAECBAgQIECAAAECAj1jgAABAgQIECBAgAABAgQIECBAgEAhAYFeoc7SVAIECBAgQIAAAQIECBAgQIAAAQICPWOAAAECBAgQIECAAAECBAgQIECAQCEBgV6hztJUAgQIECBAgAABAgQIECBAgAABAgI9Y4AAAQIECBAgQIAAAQIECBAgQIBAIQGBXqHO0lQCBAgQIECAAAECBAgQIECAAAECAj1jgAABAgQIECBAgAABAgQIECBAgEAhAYFeoc7SVAIECBAgQIAAAQIECBAgQIAAAQICPWOAAAECBAgQIECAAAECBAgQIECAQCEBgV6hztJUAgQIECBAgAABAgQIECBAgAABAgI9Y4AAAQIECBAgQIAAAQIECBAgQIBAIQGBXqHO0lQCBAgQIECAAAECBAgQIECAAAECAj1jgAABAgQIECBAgAABAgQIECBAgEAhAYFeoc7SVAIECBAgQIAAAQIECBAgQIAAAQICPWOAAAECBAgQIECAAAECBAgQIECAQCEBgV6hztJUAgQIECBAgAABAgQIECBAgAABAgI9Y4AAAQIECBAgQIAAAQIECBAgQIBAIQGBXqHO0lQCBAgQIECAAAECBAgQIECAAAECAj1jgAABAgQIECBAgAABAgQIECBAgEAhAYFeoc7SVAIECBAgQIAAAQIECBAgQIAAAQICPWOAAAECBAgQIECAAAECBAgQIECAQCEBgV6hztJUAgQIECBAgAABAgQIECBAgAABAgI9Y4AAAQIECBAgQIAAAQIECBAgQIBAIQGBXqHO0lQCBAgQIECAAAECBAgQIECAAAECAj1jgAABAgQIECBAgAABAgQIECBAgEAhAYFeoc7SVAIECBAgQIAAAQIECBAgQIAAAQICPWOAAAECBAgQIECAAAECBAgQIECAQCEBgV6hztJUAgQIECBAgAABAgQIECBAgAABAgI9Y4AAAQIECBAgQIAAAQIECBAgQIBAIQGBXqHO0lQCBAgQIECAAAECBAgQIECAAAECAj1jgAABAgQIECBAgAABAgQIECBAgEAhAYFeoc7SVAIECBAgQIAAAQIECBAgQIAAAQICPWOAAAECBAgQIECAAAECBAgQIECAQCEBgV6hztJUAgQIECBAgAABAgQIECBAgAABAgI9Y4AAAQIECBAgQIAAAQIECBAgQIBAIQGBXqHO0lQCBAgQIECAAAECBAgQIECAAAECAj1jgAABAgQIECBAgAABAgQIECBAgEAhAYFeoc7SVAIECBAgQIAAAQIECBAgQIAAAQICPWOAAAECBAgQIECAAAECBAgQIECAQCEBgV6hztJUAgQIECBAgAABAgQIECBAgAABAgI9Y4AAAQIECBAgQIAAAQIECBAgQIBAIQGBXqHO0lQCBAgQIECAAAECBAgQIECAAAECAj1jgAABAgQIECBAgAABAgQIECBAgEAhAYFeoc7SVAIECBAgQIAAAQIECBAgQIAAAQICPWOAAAECBAgQIECAAAECBAgQIECAQCEBgV6hztJUAgQIECBAgAABAgQIECBAgAABAgI9Y4AAAQIECBAgQIAAAQIECBAgQIBAIQGBXqHO0lQCBAgQIECAAAECBAgQIECAAAECAj1jgAABAgQIECBAgAABAgQIECBAgEAhAYFeoc7SVAIECBAgQIAAAQIECBAgQIAAAQICPWOAAAECBAgQIECAAAECBAgQIECAQCEBgV6hztJUAgQIECBAgAABAgQIECBAgAABAgI9Y4AAAQIECBAgQIAAAQIECBAgQIBAIQGBXqHO0lQCBAgQIECAAAECBAgQIECAAAECAj1jgAABAgQIECBAgAABAgQIECBAgEAhAYFeoc7SVAIECBAgQIAAAQIECBAgQIAAAQICPWOAAAECBAgQIECAAAECBAgQIECAQCEBgV6hztJUAgQIECBAgAABAgQIECBAgAABAgI9Y4AAAQIECBAgQIAAAQIECBAgQIBAIQGBXqHO0lQCBAgQIECAAAECBAgQIECAAAECAj1jgAABAgQIECBAgAABAgQIECBAgEAhAYFeoc7SVAIECBAgQIAAAQIECBAgQIAAAQICPWOAAAECBAgQIECAAAECBAgQIECAQCEBgV6hztJUAgQIECBAgAABAgQIECBAgAABAgI9Y4AAAQIECBAgQIAAAQIECBAgQIBAIQGBXqHO0lQCBAgQIECAAAECBAgQIECAAAECAj1jgAABAgQIECBAgAABAgQIECBAgEAhAYFeoc7SVAIECBAgQIAAAQIECBAgQIAAAQICPWOAAAECBAgQIECAAAECBAgQIECAQCEBgV6hztJUAgQIECBAgAABAgQIECBAgAABAgI9Y4AAAQIECBAgQIAAAQIECBAgQIBAIQGBXqHO0lQCBAgQIECAAAECBAgQIECAAAECAj1jgAABAgQIECBAgAABAgQIECBAgEAhAYFeoc7SVAIECBAgQIAAAQIECBAgQIAAAQICPWOAAAECBAgQIECAAAECBAgQIECAQCEBgV6hztJUAgQIECBAgAABAgQIECBAgAABAgI9Y4AAAQIECBAgQIAAAQIECBAgQIBAIQGBXqHO0lQCBAgQIECAAAECBAgQIECAAAECAj1jgAABAgQIECBAgAABAgQIECBAgEAhAYFeoc7SVAIECBAgQIBABoGPX75laIY2ECBAgAABAgRWKyDQW23XO3ECBAgQIECAwOEC959/OI//FAIECBAgQIAAgXECAr1x9o5MgAABAgQIECglcOfxu/P//p9/n//vt/9bqt0aS4AAAQIECBCYTUCgN1uPOh8CBAgQIECAQGOBCPBuPXxz/n9u/+v87On7xrWrjgABAgQIECBA4FABgd6hYn6fAAECBAgQILAigXhf3o17L7+HeTE7z/vzVtT5TpUAAQIECBBIKyDQS9s1GkaAAAECBAgQGCvw+59fz6/dffY9zDM7b2xfODoBAgQIECBAYFtAoLet4XsCBAgQIECAAIHvAk/efv7+vrwI8uI/s/MMDAIECBAgQIBAHgGBXp6+0BICBAgQIECAQAqBeE/eJsjbfL354HWKtmkEAQIECBAgQIDA+blAzyggQIAAAQIECBD4LrC9+cUmyNt8/e2PvygRIECAAAECBAgkERDoJekIzSBAgAABAgQIjBSIMC9m4W0CvO2vZueN7BnHJkCAAAECBAj8LCDQ+9nEnxAgQIAAAQIEViWwu/nFdpgX35udt6rh4GQJECBAgACBAgICvQKdpIkECBAgQIAAgV4CEdbFhhe7Id7m5xv3XvY6tHoJECBAgAABAgSOFBDoHQnnYwQIECBAgACB6gL3n3+4MsyLUC92u1UIECBAgAABAgRyCQj0cvWH1hAgQIAAAQIEugtctfnFZmZefL1+9qJ7WxyAAAECBAgQIEDgcAGB3uFmPkGAAAECBAgQKCtw1eYX22FefP/o1aey56nhBAgQIECAAIGZBQR6M/eucyNAgAABAgQIbAn8avOL7UDv2t1n5xH+KQQIECBAgAABAvkEBHr5+kSLCBAgQIAAAQLNBX61+cV2mBffnz1937wNKiRAgAABAgQIEGgjINBr46gWAgQIECBAgEBagX02v9gO9GLXW7Pz0nanhhEgQIAAAQIEzgV6BgEBAgQIECBAYFKBCOXuPH53vh3W7fO92XmTDginRYAAAQIECEwjINCbpiudCAECBAgQIEDgH4FDNr/YDvlidt7HL9/+qch3BAgQIECAAAEC6QQEeum6RIMIECBAgAABAqcJxOYX189eHDwzL4K9Ww/fnHZwnyZAgAABAgQIEOguINDrTuwABAgQIECAAIHlBA7d/GJ7dl58H2GgQoAAAQIECBAgkFtAoJe7f7SOAAECBAgQILC3wKGbX+yGeTcfvN77WH6RAAECBAgQIEBgnIBAb5y9IxMgQIAAAQIEmgkcs/nFbqAXs/sUAgQIECBAgACB/AICvfx9pIUECBAgQIAAgUsFYvOLeO/dbjh36M9m511K7C8IECBAgAABAukEBHrpukSDCBAgQIAAAQL7CcRutDfuvTw5zIvwb8nZeRFCKgQIECBAgAABAscLCPSOt/NJAgQIECBAgMAwgdi84trdZ03CvAgFlypP3n62k+5S2I5DgAABAgQITCsg0Ju2a50YAQIECBAgMKtAhGL//T//bhLmxey8qG+pEkt745h2011K3HEIECBAgACBGQUEejP2qnMiQIAAAQIEphU4e/q+WZAXwVrM8luqxFLbTRB5/ezFUod1HAIECBAgQIDAdAICvem61AkRIECAAAECMwq02vwiQrzt/+4//7AYV8wE3D72kjMDFztJByJAgAABAgQILCAg0FsA2SEIECBAgAABAqcIRJi3Waq6HYid+n3Mzltyg4rdc4jZegoBAgQIECBAgMDhAgK9w818ggABAgQIECCwmEDLzS92A8BYvrtUiR15d48fPy/ZhqXO1XEIECBAgAABAr0FBHq9hdVPgAABAgQIEDhS4Lc//vrPO+cuCsNO+bOYHbfk7LzL3v0X7YiwTyFAgAABAgQIENhfQKC3v5XfJECAAAECBAgsJhDvtttsIHFKcHfZZ5eeGXfj3ssLZ+hF+2IprkKAAAECBAgQILC/gEBvfyu/SYAAAQIECBDoLtBr84vtYG/pWXGxbHj7+Bd9H7+jECBAgAABAgQI7Ccg0NvPyW8RIECAAAECBLoL9Nr8YjdAu/XwTfdz2T7AZcttt9sVG3QoBAgQIECAAAEC+wkI9PZz8lsECBAgQIAAga4CPTe/2A7O4vulZ8NFWLfbhot+fvTqU1djlRMgQIAAAQIEZhEQ6M3Sk86DAAECBAgQKCvQc/OL3eBs6ffVPXn7ea8wL9oZS4EVAgQIECBAgACBXwsI9H5t5DcIECBAgAABAt0Eem9+sRvoRXi4ZIkAcbcNV/185/G7JZvnWAQIECBAgACBkgICvZLdptEECBAgQIBAdYF4X16EV1eFW63/bunZeXGOx+zU+/HLt+rdq/0ECBAgQIAAga4CAr2uvConQIAAAQIECPwssNTmF7uB4NKz8w5Zbrvd1qWDx597yJ8QIECAAAECBHILCPRy94/WESBAgAABApMJxIYU189eLDozL8KyG/deLi556HLb7VAvwkCFAAECBAgQIEDgYgGB3sUu/pQAAQIECBAg0Fxgyc0vtsOx+H7pHWRj2exuGw75OXbGVQgQIECAAAECBC4WEOhd7OJPCRAgQIAAAQJNBZbe/GI7PItwLJb5LlnifLfbcMz3S4eQS/o4FgECBAgQIEDgFAGB3il6PkuAAAECBAgQ2ENg6c0vdsOzCNeWLrHEd7cdh/4cG2rYIGPpnnM8AgQIECBAoIKAQK9CL2kjAQIECBAgUFIgZsXdevjm5GDr0CBs+/dHzM6L9wRut+GU78NPIUCAAAECBAgQ+FFAoPejh58IECBAgAABAk0EYmZZi1lqp4Rh8dmzp++bnM8hlcQxT2339ucjIFQIECBAgAABAgT+ERDo/WPhOwIECBAgQIBAE4EIoGJm3HYoNeL7WLK69LvzArD1uY/YobfJQFAJAQIECBAgQKCTgECvE6xqCRAgQIAAgXUKPHn7+TyCtBEB3u4xR8zOi/PfbUeLn6NehQABAgQIECBA4G8BgZ6RQIAAAQIECBBoJNB6qekpQdioDSVuPnjdJdCL81EIECBAgAABAgT+FhDoGQkECBAgQIAAgRMFMmx+sRv+jdhMIhx6zk4cMePwxKHh4wQIECBAgACBLgICvS6sKiVAgAABAgTWIhAhVq9Zabsh3SE/j9hIotdy2815j5p1uJax7DwJECBAgACBOgICvTp9paUECBAgQIBAMoEsm19sAq/N1wgYR5Qlgs1R5zbC0zEJECBAgAABApcJCPQuk/HnBAgQIECAAIErBH7746+uy0s34dwxX6NtS5fey223HUbMPlza0/EIECBAgAABAlcJCPSu0vF3BAgQIECAAIELBO4//5A2zBs1gy1MtkO3nt9fP3txQa/4IwIECBAgQIDAegQEeuvpa2dKgAABAgQInCiQcfOL3eBsxOy8YL1x7+VigV6c86NXn07sTR8nQIAAAQIECNQVEOjV7TstJ0CAAAECBBYUyLr5xXagN2rmWiyB3W7HEt/HBhkKAQIECBAgQGCtAgK9tfa88yZAgAABAgT2Fsi6+cVucDZq1trZ0/eLB3px7nFchQABAgQIECCwRgGB3hp73TkTIECAAAECewtk3vxiO9C7dvfZecwiHFHi2NttWfL7j1++jThlxyRAgAABAgQIDBUQ6A3ld3ACBAgQIEAgs0DmzS92Q7NRs9WevP08LMwLg1GbgGQet9pGgAABAgQIzC8g0Ju/j50hAQIECBAgcKBAzHS78/jd0KBqN7C76ud4n9yo2XkRqF3VtiX+btRGIAcOK79OgAABAgQIEGgmINBrRqkiAgQIECBAYAaBCptf7IZko2bnhVWEibvtWfrnWPKrECBAgAABAgTWJCDQW1NvO1cCBAgQIEDgSoEqm19sB2YjZ+eNXm677TBqQ5ArB5S/JECAAAECBAh0EhDodYJVLQECBAgQIFBLoMrmF9shVnw/anZe9G6G5bYbjwg2FQIECBAgQIDAWgQEemvpaedJgAABAgQIXCpQafOLTYAVXyPEGrXLa5blttsetx6+ubSP/QUBAgQIECBAYCYBgd5MvelcCBAgQIAAgYMFKm1+sR1exfcjA6wIQXfbk+HnUQHnwQPPBwgQIECAAAECJwgI9E7A81ECBAgQIECgrkDMMItALEMIdWwb4p1/o8qNey9T2kW7FAIECBAgQIDA7AICvdl72PkRIECAAAECPwnELK6sgdS+4V68v25UiSBx33aO+L3YrEMhQIAAAQIECMwsINCbuXedGwECBAgQIPCTQMWdbC8KxWITj1ElNuK4qE1Z/uza3WejaByXAAECBAgQILCIgEBvEWYHIUCAAAECBDIIxMyt2EgiS/B0bDtGzs6LfozA7Ni2L/W5R68+ZRhy2kCAAAECBAgQ6CIg0OvCqlICBAgQIEAgm0D2WWWHBF0jl5TGsQ9p66jfHbkDcLaxrz0ECBAgQIDAfAICvfn61BkRIECAAAECWwIzbH6xHYpdP3uxdXbLf1tpI5GRuwAv3zOOSIAAAQIECKxJQKC3pt52rgQIECBAYGUCEebF8tTtQKz69yOXkoZntSXLI3cCXtnl5nQJECBAgACBBQUEegtiOxQBAgQIECCwnMAsm19sB5Dx7roI1UaVKsttt81iN2OFAAECBAgQIDCbgEBvth51PgQIECBAgMB57ABbbSbZdgh12ffxHsCRpepsx5HvHBzZX45NgAABAgQIzCsg0Ju3b50ZAQIECBBYpcD95x+mDPMioBw5O6/icttNMBp2CgECBAgQIEBgJgGB3ky96VwIECBAgMCKBSJwqrRhwyZs2vfr6Nl5EZTu29aMvzfab8WXplMnQIAAAQIEOggI9DqgqpIAAQIECBBYViDCvKrLQfcJv0bPzovejHfR7dPWrL8Thh+/fFt2YDoaAQIECBAgQKCTgECvE6xqCRAgQIAAgWUEZtz8YjcUGz27LIx321Tx5wh9FQIECBAgQIDADAICvRl60TkQIECAAIGVCsy6+cV2WJZhZlkEitttqvx9hJMKAQIECBAgQKC6gECveg9qPwECBAgQWKnArJtf7IZl8V7A0eXa3WfTBHpxLgoBAgQIECBAoLqAQK96D2o/AQIECBBYmUC8L+/O43fTBEy7Ad7uz6NnlD15+3k660evPq3sqnG6BAgQIECAwGwCAr3ZetT5ECBAgACBiQVm3/xiN8zL8M63GXcOjmXMCgECBAgQIECgsoBAr3LvaTsBAgQIEFiRwBo2v9gN9OIdgSNLBKgRfu22a4afR280MrJfHZsAAQIECBCoLyDQq9+HzoAAAQIECEwvsPB+D/UAACAASURBVIbNL3ZDshv3Xg7v1xmX2247f/zybbixBhAgQIAAAQIEjhEQ6B2j5jMECBAgQIDAYgJr2fxiO2iK7yNMG11iye9uu2b6OcOS5tF97PgECBAgQIBATQGBXs1+02oCBAgQILAKgTVtfrEdlF0/ezG8f2debrttPXpZ8/CO1gACBAgQIECgpIBAr2S3aTQBAgQIEJhbIMKkGTdj2A6Srvo+wy6sMTPyqjbO8nfX7j6b+2JydgQIECBAgMCUAgK9KbvVSREgQIAAgboC8V6zeH/cLIHRoecRAVMEmqPLmvogQ4A6ur8dnwABAgQIEKglINCr1V9aS4AAAQIEphZY4062u4Ffht1Xox922zXzz7GTb4YQdeqL28kRIECAAAECTQUEek05VUaAAAECBAgcKxCbQESwMnNw9KtzyxIsRaj4q7bO9vexxFshQIAAAQIECFQREOhV6SntJECAAAECEwusMUC6KBDLMDsvhlks+72ofbP/WSz3VggQIECAAAECFQQEehV6SRsJECBAgMCkAmvf/GI7IMsyOy9mSm63a03fx3sDFQIECBAgQIBABQGBXoVe0kYCBAgQIDChQIR5Nx+8Xm14tBuUZZmdt+bdhaNPItBUCBAgQIAAAQLZBQR62XtI+wgQIECAwIQCNr/41w9BZszOy7DcM0JW7zH894RXnFMiQIAAAQIEZhMQ6M3Wo86HAAECBAgkF/jtj79WHxrtzs6LmYoZypqX2273yf3nHzJ0hzYQIECAAAECBC4VEOhdSuMvCBAgQIAAgdYCEZSsfQbYdnC0+T5CzgzFEui/Z05mmTGZYUxoAwECBAgQIJBTQKCXs1+0igABAgQITCVg84sfl9hugrz4mmV2nuW2P/ZRvEtQIUCAAAECBAhkFRDoZe0Z7SJAgAABApMI2Pzix6BoO8yL77PMzovZk7ttW/vP8a5HhQABAgQIECCQUUCgl7FXtIkAAQIECEwiYPOLq8O8G/depunpaMvaA7zd879+9iJN/2gIAQIECBAgQGBbQKC3reF7AgQIECBAoJmAzS+uDvMiPIpNKDKUCF53wyw//91/WfoowzjRBgIECBAgQCCPgEAvT19oCQECBAgQmEbA5he/DvMyzf46e/peoHf74j6LDTIUAgQIECBAgEA2AYFeth7RHgIECBAgUFgg3pd35/E74dAl4dD2rLdHrz6l6elrd5/psyv6LAJPhQABAgQIECCQSUCgl6k3tIUAAQIECBQWsPnFxTO8tkO8zfcRoIVXhhJLSjft8vXiPoxZeh+/fMvQXdpAgAABAgQIEPguINAzEAgQIECAAIGTBWx+cXEQdFlAlmnG162HbwR6V8zO2/ThzQevT75OVECAAAECBAgQaCUg0GslqR4CBAgQILBSAZtfHBbmxWyvLLPzoh3Rnk1o5evVfRnBtUKAAAECBAgQyCAg0MvQC9pAgAABAgSKCtj84uoA6KKALNPsPMttD+u/WCqtECBAgAABAgQyCAj0MvSCNhAgQIAAgYICNr84LAyKcC/bu9hiGelFoaM/u7xvM21mUvC2ockECBAgQIBAIwGBXiNI1RAgQIAAgbUI2Pzi8rDnV0FYptl5ltse148RyioECBAgQIAAgdECAr3RPeD4BAgQIECgkEDs9Hnj3kuzuvbYRGE33Ms2Oy+WS++20c/7hXwxO1UhQIAAAQIECIwUEOiN1HdsAgQIECBQSMBOtvuFPZeFYtl2SRXMntafEW4rBAgQIECAAIFRAgK9UfKOS4AAAQIECgnE5gl2Qz0tAIrdgLOUCGcvCx79+X79nC2gzTK2tIMAAQIECBBYRkCgt4yzoxAgQIAAgbIC8d43Ic9+Ic9lTtnCH316Wn9u+jmCboUAAQIECBAgMEJAoDdC3TEJECBAgEABgdg04dbDN8K8I96Xtwl8Nl8zzc6LoXft7jP92qBfw1EhQIAAAQIECIwQEOiNUHdMAgQIECBQQCBmlW0CKV+Pn9EV76rLVGJWmf48vj937R69+pSpe7WFAAECBAgQWImAQG8lHe00CRAgQIDAIQJCn3aBT7ZlmbFD624o5efj+zveLRmzWRUCBAgQIECAwJICAr0ltR2LAAECBAgUEIhw4vrZC6FPgyWZ4ZipRN/a3OT48O6y4DOWpisECBAgQIAAgSUFBHpLajsWAQIECBAoIGDDhHaBT7blmGZetuvb3XDv45dvBa5uTSRAgAABAgRmERDozdKTzoMAAQIECDQQiFDCDK42oU9smJBtKab3Irbp290wL37O9q7EBrcDVRAgQIAAAQKJBQR6iTtH0wgQIECAwNICdrVtF/jETMdMxXLbdn17UaAXf5btfYmZxp+2ECBAgAABAm0FBHptPdVGgAABAgTKCvz2x1/em9fgvXkR7GTcKOH+8w/6t1H/XhboRb8rBAgQIECAAIElBAR6Syg7BgECBAgQKCAQSwYvCyr8+WGzu7LNzovhp38P68Njx3wEpwoBAgQIECBAoLeAQK+3sPoJECBAgEABAbO32oU9MUsr2wYJv//5VVjbeXbeJgDM2P8FbkGaSIAAAQIECBwoINA7EMyvEyBAgACB2QS8W61dmBehzp3H79INETsXt+3jTXh32dd4F6VCgAABAgQIEOgpINDrqatuAgQIECBQQEDY0zbsidlw2UrsuHtZ+OTP2/b/xjPjOMg2LrWHAAECBAgQOF5AoHe8nU8SIECAAIHyArE0NJYIbkIIX08Ld24+eJ1uTMTOq/r1tH49xu/62Yt0Y0GDCBAgQIAAgXkEBHrz9KUzIUCAAAECBwtEAHVMWOEzFwdEsVNwthJLgPXXxf3V2yXCVIUAAQIECBAg0ENAoNdDVZ0ECBAgQKCAgJlbbUOejLPzvB+xbR8fGgDG7FeFAAECBAgQINBDQKDXQ1WdBAgQIEAguUAEPbEk8NCAwu9fHhBlnJ0ntL28v5Yay/GOSoUAAQIECBAg0FpAoNdaVH0ECBAgQKCAwP3nH4R5t9uFPTfuvUzZ65ZUt+vjYwPAmKUX76pUCBAgQIAAAQItBQR6LTXVRYAAAQIECghYhtk+5Mn4rjT93L6fjw31Mi7HLnCr0kQCBAgQIEDgCgGB3hU4/ooAAQIECMwoYJOEtkFP1t1MzcJs28/Hhnmbz/3+59cZbyfOiQABAgQIEBgkINAbBO+wBAgQIEBghECECrEEcBMy+Hp66BPBWcYSy4D17+n928rw2t1nGYeJNhEgQIAAAQJFBQR6RTtOswkQIECAwDECQp62AU+ENLG0NVuJ4LZVEKWedmPm0atP2YaK9hAgQIAAAQJFBQR6RTtOswkQIECAwKECdjxtF8xsQq6sO5hGuzZt9LV9vx9rGrNjFQIECBAgQIBACwGBXgtFdRAgQIAAgeQCMYss3vV2bBDhcz+HQhHOZJydF0MxZg7qs5/7LINJvMNSIUCAAAECBAicKiDQO1XQ5wkQIECAQAEBM7bahztZZ+f99sdfwrzb7fu7ZRj48cu3AncNTSRAgAABAgQyCwj0MveOthEgQIAAgQYCER7YCKNtwBOeWUMZuxi37euWQd6mrpsPXje4slVBgAABAgQIrFlAoLfm3nfuBAgQILAKAQFP+4Dn1sM3KcdOLAG23LZ9f2+CuJZf452WCgECBAgQIEDgWAGB3rFyPkeAAAECBAoIWH7ZJ9yJXWQzFhuf9OnvlkHepq4IXhUCBAgQIECAwLECAr1j5XyOAAECBAgUELhx76X3qTV+n1rm5ZLRtk1g5Gv+cO/Rq08F7iKaSIAAAQIECGQUEOhl7BVtIkCAAAECDQTM1uoT6MSsx4wlltt6V2KfPu8VjmZ+F2PGMa5NBAgQIECAwD8CAr1/LHxHgAABAgSmEfAutT7BTubZefeffzA7r/FszF5B3na9Wd/HOM3N0IkQIECAAIFJBQR6k3as0yJAgACBdQucPX0v3OkQ7mSdnRej3fLqPiHudvjW6/usOyav+y7q7AkQIECAQG4BgV7u/tE6AgQIECBwsECEA5Zetg93IjDLWmKTjl5hk3rbj6Vd08xjK+uY1y4CBAgQILB2AYHe2keA8ydAgACB6QRiCd9uYODn00OZeCdh1mJG5un9O/oayTy+so577SJAgAABAmsWEOitufedOwECBAhMJxBLQkcHEzMe/9rdZ6nHSrRvRvc1nVPMqlUIECBAgAABAvsKCPT2lfJ7BAgQIECggID3qPWZqRUbTmQtQtw+fT4iTMw8zrKOf+0iQIAAAQJrFRDorbXnnTcBAgQITCdgl9M+wU7Mfotdg7MWy2379PuIQC9m6dkgI+uVpl0ECBAgQCCXgEAvV39oDQECBAgQOEogAicbYfQJdiIwy1qi3y237dPvIwK9OGa8A1MhQIAAAQIECPxKQKD3KyF/T4AAAQIECgiYpdUn1ImQNPPsvNhIYVTw5Lh9xly4xq7FCgECBAgQIEDgKgGB3lU6/o4AAQIECBQQiCV6Zuf1CVcyz86LoXnzwWuB3u0+fT8ysLx+9qLAnUcTCRAgQIAAgZECAr2R+o5NgAABAgQaCAh1+gQ62d9nZpl1n34fGeRtH/vRq08N7g6qIECAAAECBGYVEOjN2rPOiwABAgRWIWDJZb9QJ/u7zGyC0q/vt4O1Ud9HoKwQIECAAAECBC4TEOhdJuPPCRAgQIBAcoGYoRVL80YFDrMfN/t7zG7ce6nvJ1xuu31dZV/ynfwWqXkECBAgQGBqAYHe1N3r5AgQIEBgZgEztPrN0IplzJlLhI3bwY/v+42F0bbxjkyFAAECBAgQILArINDbFfEzAQIECBAoIOD9aX0DnN/++Cv1KLCrcd/+Hx3ibR8/e7ic+kLROAIECBAgMLGAQG/iznVqBAgQIDCvwJ3H78zQ6rTcskKAcu3uM/3fqf+3w7Qs32df/j3vndaZESBAgACBvAICvbx9o2UECBAgQOBCgZg9Fi/MzxI2zNaO7LPzLLddz+y8zbUVAa5CgAABAgQIENgWEOhta/ieAAECBAgUELAZQr9AJ2yzF8tt+/X/JkDL+PXRq0/Zh6b2ESBAgAABAgsKCPQWxHYoAgQIECBwqsCTt5/NzOu41DJ7aBLvTrTcdp2BXszKVQgQIECAAAECGwGB3kbCVwIECBAgkFwgwpzrZy8Eep0CvQjKwjhzEeiuM8zbzBi89fBN5uGpbQQIECBAgMCCAgK9BbEdigABAgQInCJgqWXfMCd8s5fYsGMT7vjadzxk9f345Vv2Yap9BAgQIECAwAICAr0FkB2CAAECBAicKhAP8TbC6BfghG322XnRPmOg3xjIGuDttqvCLsyn3u98ngABAgQIEPi1gEDv10Z+gwABAgQIDBeIpXa7D/Z+bhfuVJidd//5B2Og03LratdSLL1WCBAgQIAAgXULCPTW3f/OngABAgQKCPz2x1+CnI5BToXZeTFM7W7cLsCtFuDttjfe96gQIECAAAEC6xYQ6K27/509AQIECBQQEOT0DXIqzM77/c+vQt2Ooe5uYFbh5+w7Mhe4tWoiAQIECBAoLSDQK919Gk+AAAECswvEQ3uFcKFqG2N2XoVNBmyI0jfUrTh+q4zd2e/Rzo8AAQIECIwSEOiNkndcAgQIECDwC4HYBCGW1lUMG6q0Od5NWKEYBwK9i66pKuO3wjWmjQQIECBAoJqAQK9aj2kvAQIECKxGwKys/iFOLGXNXiy37T8OLgrLqvxZhTGc/RrTPgIECBAgUFFAoFex17SZAAECBKYXiGWgsaSuSqhQsZ03H7wuMY4EuwK9q66veMemQoAAAQIECKxPQKC3vj53xgQIECBQQCCW0l31EO/vTg95Yvfg7MWy69P7eQ3XypO3n7MPZe0jQIAAAQIEGgsI9BqDqo4AAQIECJwqEA/nawghRp5jldl5xoJAb5/rJGbzKgQIECBAgMC6BAR66+pvZ0uAAAECBQRiCd0+D/F+5/iwp8qMpgge9fPx/bwmu1iarRAgQIAAAQLrERDoraevnSkBAgQIFBC4//yDAOd23wDn+tmLAiPh/DyW23qPYt+xMFPgF2Ml3r2pECBAgAABAusQEOito5+dJQECBAgUEBDgLBPePHr1qcBoOD8X7i4zHmYK9aosJS9xAWokAQIECBBILiDQS95BmkeAAAEC6xGwm2n/AOfa3WffZ75VGFWWXvcfDzOFeZtz+f3PrxWGtzYSIECAAAECJwoI9E4E9HECBAgQINBCIJbKWV7ZP8Cp8p6xCGU2AY2v/cfFTMZVlpS3uG+qgwABAgQIrFlAoLfm3nfuBAgQIJBGwGys/qFNBKaxrLlCMVuz/3iYKcTbPZcqy8orXIvaSIAAAQIEsgoI9LL2jHYRIECAwGoEYsfV3QdyP7cPdKrMzouBH0uDjYH2Y2AtphFeKwQIECBAgMDcAgK9ufvX2REgQIBAcoGYMRZL5NYSNIw6z0qz8yy3FeS1uE4qBdjJb9OaR4AAAQIEUgoI9FJ2i0YRIECAwFoE7GS6THhTKdyw3HaZMdEiNMteR7ybUyFAgAABAgTmFBDozdmvzooAAQIECgjE7DwbYfQPb8K4SrARY8Jy2/5jInsQ16p9Nx+8LnAn1EQCBAgQIEDgGAGB3jFqPkOAAAECBBoI3Hn8zlLb2/3Dm1sP3zTorWWq8D7F/uOhVVhWpZ7f/vhrmcHrKAQIECBAgMCiAgK9RbkdjAABAgQI/C0QD9lm5y0T3sQ76aoUgd4yY6JKGNeinTHjUyFAgAABAgTmExDozdenzogAAQIECgjcuPfS7LwFZudVXHIYMwpbBDnqEA5uxsCjV58K3BU1kQABAgQIEDhEQKB3iJbfJUCAAAECDQTMwlouaKm63FDgu9wY2YReM3+N2cAKAQIECBAgMJeAQG+u/nQ2BAgQIJBcIDY9uH72wgwss/OuHKnGiUCvdcBY6V2SV14c/pIAAQIECBD4LiDQMxAIECBAgMCCAmdP3wvzFgjzIgyJmZCVi12QhXqtQ70quz1Xvm61nQABAgQILCUg0FtK2nEIECBAYPUC8TBtI4xlQpqYBTlDiQ09Woc66ltmDGZ0jqXcCgECBAgQIDCHgEBvjn50FgQIECBQQMBmB8sFKTNtAuCdi8uNm4whXOs2VZ+5WuBWr4kECBAgQGARAYHeIswOQoAAAQJrF4jNGVo/mKvv4qDn2t1n57FcdaYiDL64r10Dh7vE9aEQIECAAAEC9QUEevX70BkQIECAQAEBu5YeHjwcG9bEewpnLDcfvBYKL/T+xWPHXpXPzTSDdcZr3TkRIECAAIF9BAR6+yj5HQIECBAgcILA/ecfBDELBTHxjsLZZudtDz07JC8XDFcJ545pZ1wnNsjYvrJ8T4AAAQIE6gkI9Or1mRYTIECAQCGBCJdiidsxD90+c3h4M+vsvM2Qt/Pt4WPCdXSxWSzjVggQIECAAIG6AgK9un2n5QQIECBQQCACJoHCxYFCa5fZZ+dthrudb5cZT63HZ8b6YiwpBAgQIECAQE0BgV7NftNqAgQIECggEEvaImTK+CA/Y5tmn523PeRtsiLUa3ENxxJuhQABAgQIEKgpINCr2W9aTYAAAQIFBOxMulzossZ3gt15/E5YvNC7GVuEZ1nrePL2c4G7qSYSIECAAAECuwICvV0RPxMgQIAAgQYC8ZCc9QF+xnbFDrBrLHa+XS40nvG6iXOKMFwhQIAAAQIE6gkI9Or1mRYTIECAQHKB2Ljgxr2XAr0FZ0+t+V1gdr4V6p0aNq5puXry/31oHgECBAgQ2FtAoLc3lV8kQIAAAQL7Cdx//kGYt2CYt9bZeZvRaCdlgd6pgd4al6xvrh9fCRAgQIBAVQGBXtWe024CBAgQSCkQ4YqNMJYNWGKDiLUXO98uO+ZODdAyfn7twfja7yHOnwABAgTqCQj06vWZFhMgQIBAYoFYupbxYX3WNsXSZuVvATvfCvVOvc7XvHTdfYQAAQIECFQTEOhV6zHtJUCAAIG0Ah+/fDM7b8GlthFe2KHzx8vBcm+h3imh3rW7z34cUH4iQIAAAQIE0goI9NJ2jYYRIECAQDUBG2EsG6bEZhDKzwK3Hr4xS3ThYPmUEC3bZx+9+vTzoPInBAgQIECAQDoBgV66LtEgAgQIEKgoEDPFsj2Yz94ewcPlV4pwedlweaZrLd4BqhAgQIAAAQL5BQR6+ftICwkQIEAguUBshBGzxWZ6qM9+LrE0MNyViwXsfCvQO+UajneBKgQIECBAgEBuAYFe7v7ROgIECBAoIGAjjOXDE4HDry+MeKfjKaGOzy4/rjOZx/hRCBAgQIAAgbwCAr28faNlBAgQIFBAIGZCxRK1TA/is7clvM3O2+/isPPtukO5U+4FNx+83m+Q+S0CBAgQIEBgiIBAbwi7gxIgQIDALAJ3Hr8T5i28AYHZeYddPfGuwVOCHZ9dbygYgbBCgAABAgQI5BQQ6OXsF60iQIAAgQICZj8tH3TE7DxLAQ+/OOx8u/xYnSEIjXdVKgQIECBAgEBOAYFezn7RKgIECBAoIGAn0eVDErPzjr8wjNflx+sMoZ7dpI+/5nySAAECBAj0FBDo9dRVNwECBAhMK/Dk7WfLGBdeamt23mmXU7x30G7MQr1DQ0bvrDztuvNpAgQIECDQS0Cg10tWvQQIECAwrYBgZEwo4iX9p19SsVw5AppDQx2/P2bMZ3GPJdsKAQIECBAgkEtAoJerP7SGAAECBAoIxLLPLA/aa2qHF/S3uTi8+3Hd4dyx9wzvrmxz/amFAAECBAi0EhDotZJUDwECBAisQsAMpzFhiNl5bS8vO9+OGcfHhmkZPhfvYFQIECBAgACBPAICvTx9oSUECBAgUEDAbqFjghCz89pfHMbymLGcIZw7tg3x7lCFAAECBAgQyCEg0MvRD1pBgAABAgUELFUcE4CYGdTv4rDz7ZgxfWygNvpz8f5FhQABAgQIEMghINDL0Q9aQYAAAQIFBIQfY8IPs4L6XRw2eBkzpkcHc6cc//7zD/0GpJoJECBAgACBvQUEentT+UUCBAgQWLNAPMSe8hDss8cFJ9fPXqx52C1y7t4LedzYXOs1HbP0bJCxyKXpIAQIECBA4EoBgd6VPP6SAAECBAicn8cspniIXesD/Mjzjs0blP4ClpML9Q65zuP9iwoBAgQIECAwVkCgN9bf0QkQIECggMDZ0/fCvNvLBx7X7j77HqYWGCJTNDGWNh8S6vjd5a+JTOa///l1inHvJAgQIECAQFUBgV7VntNuAgQIEFhEwHLEcaFFBKnKsgJ2vh033jOFdfu0xXL4Za9NRyNAgAABArsCAr1dET8TIECAAIEtgZsPXpu1NGB2XixxjqXOyvICxrxQb59AL37HhjXLX5+OSIAAAQIENgICvY2ErwQIECBAYEfAEsRxwYbZeTuDccEf7Xw7btzvG6Rl+b0I3hUCBAgQIEBgjIBAb4y7oxIgQIBAcgGhxrhQwy6a4y8OG8GMG/9Zwrp92yF8H3+9agEBAgQIrFNAoLfOfnfWBAgQIPALgfvPP1hqO2CpbYQIdx6/+0Xv+OslBGLTg31DHb+33gBQAL/E1egYBAgQIEDgZwGB3s8m/oQAAQIEVi5gdtK4cCLCAbtn5rkALTsfdy1UCknjvYsKAQIECBAgsKyAQG9Zb0cjQIAAgQICMUOs0sP0TG0VDOS7QFwPQr197jGC+HzXrhYRIECAwNwCAr25+9fZESBAgMCBAvFQGrPE9nmA9Tvtg47f/vjrwB7z60sI2Pm2/Vif7f5x7e6zJYaiYxAgQIAAAQL/X0CgZygQIECAAIEtgRv3XgrzBr07z+y8rYGY8NvrZy9cG4OujSrh36NXnxKOXE0iQIAAAQJzCgj05uxXZ0WAAAECRwh4X9jYWUhm5x0xaBf8SLxbMmZhVQmXtHP56zlmNysECBAgQIDAMgICvWWcHYUAAQIEkgtEWGEG0vIBwCZ0iZmRSn4BO9+Ou0Y210r2r3apzn8dayEBAgQIzCEg0JujH50FAQIECJwocPb0vZlHA5cTxuxIpYZAzKTMHipp39jg8eOXbzUGs1YSIECAAIHCAgK9wp2n6QQIECDQRiAePm2EMS4AiJmRSi2B+88/CPUGBuDZA0vvw6x1PWstAQIECNQUEOjV7DetJkCAAIGGArFELPsD8szti3BIqSdg59txIXiF+4FZt/WuaS0mQIAAgVoCAr1a/aW1BAgQINBYwPLBsaFEbLIQ7y9Uagp47+TY6ydzsBfXtkKAAAECBAj0ExDo9bNVMwECBAgUEIjNGDI/FM/etnh3oVJXwM63Ar2r7lGPXn2qO7i1nAABAgQIJBcQ6CXvIM0jQIAAgX4CsSTsqodRf9c3rIj3Fpqd1298L1VzvIPStdL3Wqnq6xpf6ip0HAIECBBYo4BAb4297pwJECBA4HuQFEvCqj4oz9Bus/PmuRAtXRfoXXZPuvXwzTwD3ZkQIECAAIFEAgK9RJ2hKQQIECCwnECESZc9gPrz/uFEzNyJmV3KPAJ2vu1/3VS9N7nW57nOnQkBAgQI5BEQ6OXpCy0hQIAAgYUE4uEyAqWqD8cztNusnYUG+8KHiX6dYXw6h7bhZLyrVCFAgAABAgTaCgj02nqqjQABAgQKCAgd2j6sHxN+/P7n1wIjRROPEbDRzPjr65hrsvdn4p2lCgECBAgQINBOQKDXzlJNBAgQIFBAwLu+xocNNx+8LjBSNPFYATvfjr/Geodzx9Qfs6IVAgQIECBAoJ2AQK+dpZoIECBAoICA2UPjw4YIVZW5Bex8O/46OyZ06/2ZeM+iQoAAAQIECLQREOi1cVQLAQIECBQQ8NL+8SGD2XkFLpRGTTQbdvz11jugO7R+m+E0urhUQ4AAAQIEzs/PBXqGAQECBAisQiCWAdoIY3zAYHbeKi63/5zko1efbJJxe/x1d2jw1vP3bYjzn8vDNwQIECBAfwZMoQAAIABJREFU4CQBgd5JfD5MgAABAlUEzp6+FywMDhbsdFnlamnbTpvQCPR2A0Kb4rS9xtRGgAABAusUEOits9+dNQECBFYlEO/zMjtvfKhgl8tVXXY/nKx3V46//nZDtZE/Xz978cP48AMBAgQIECBwuIBA73AznyBAgACBYgLx3raRD6+O/a/za3efFRs1mttSIJa8R4jjWhDsbcaAgL/lFaYuAgQIEFijgEBvjb3unAkQILAigXho3DxA+jouTLC75YouuktO1UzZcddfxntfzJpWCBAgQIAAgeMFBHrH2/kkAQIECCQXMCsoR4AQs/OiLxQCdr7NcU1mCfji3aYKAQIECBAgcJyAQO84N58iQIAAgQICMSssy4Prmtvhob3AxbJgE82aFept7ocxSy9mbioECBAgQIDA4QICvcPNfIIAAQIECgjEjDAbYYwPDqIPzM4rcMEs3EQ7346/Njeh2uiv8Y5ThQABAgQIEDhcQKB3uJlPECBAgEABgTuP35mdd3t8aGB2XoGLZVAT7Xw7/vocHeZtjv/7n18HjUKHJUCAAAECdQUEenX7TssJECBA4BKBeE+X2XnjwwLL6S4ZoP74u4B3XI6/RjeB2uivdsF2UyBAgAABAocLCPQON/MJAgQIEEguYOZPjqAgllUqBK4SsDQ+x7U6OtCL4z969emqoeLvCBAgQIAAgR0Bgd4OiB8JECBAoLaAF+7nCQgso6t9LS3Vejvf5rlmRwZ7MaNXIUCAAAECBPYXEOjtb+U3CRAgQCC5gCV8eYIBL7pPfrEka54gPs+1OzLUi3efKgQIECBAgMB+AgK9/Zz8FgECBAgUEIgNGEY+jDr2P6FEzLpSCBwiYOfbf66fNd9LPn75dsiw8bsECBAgQGC1AgK91Xa9EydAgMBcAvEQaCOMHIGA2XlzXVtLnk2MnTWHWc79X+fuH0tecY5FgAABApUFBHqVe0/bCRAgQOA/Amb35AjzIpAwO+8/w9I3BwpYNp/nOh4ZLsYSbIUAAQIECBC4WkCgd7WPvyVAgACBAgJeqp8nBIgdhhUCpwjY+TbP9Twq1Lt299kpQ8hnCRAgQIDAKgQEeqvoZidJgACBuQUiRBr14Om4P4YPj159mnuwObtFBGKHZNfWj9fW2jzcSxa51ByEAAECBAoLCPQKd56mEyBAgMD5eTz0re1BN+v5xqyamF2lEGghYObtugO9eCeqDTJaXEnqIECAAIFZBQR6s/as8yJAgMAKBCI8ihApa8C1tnbdf/5hBaPOKS4pcOfxO9f37fUGe/FuVIUAAQIECBC4WECgd7GLPyVAgACBAgJnT9972E/ysB+zaczOK3DRFGyinW/XG+jFP4rE8muFAAECBAgQ+FlAoPeziT8hQIAAgQICsRQrQqS1zYLLer4RrioEeglcP3vhWk8S3i99D7LRTq+rSr0ECBAgUF1AoFe9B7WfAAECKxWIpVhLP1g63sUzhczOW+lFuOBpW15/8bW3lnvSk7efFxxtDkWAAAECBGoICPRq9JNWEiBAgMCWQDzcreVBtsJ5mp23NTh9203AzrfrDfXiHw0UAgQIECBA4EcBgd6PHn4iQIAAgQICsQSrQtC1hjbGg7adKAtcNJM00c636w31/MPBJBex0yBAgACBZgICvWaUKiJAgACBJQRiJ9U1BGVVztEulEuMesfYFnAPWGeo5x8Ptq8C3xMgQIAAgfNzgZ5RQIAAAQJlBOI9WvFQVyXsWkM77UBZ5vKZqqF2vl1nqBf9rhAgQIAAAQJ/Cwj0jAQCBAgQKCMQS67WEJJVOUcP12UunSkbaufbdYZ6/hFhysvZSREgQIDAEQICvSPQfIQAAQIElheI97SZnZfrAT7eZ6YQGCVg59tc94Ol/iEiglyFAAECBAgQsOTWGCBAgACBIgI2wsj18G52XpELZ/JmRtC/VJDkOHnuQY9efZp8ZDs9AgQIECDwawEz9H5t5DcIECBAYLDAk7efPbTfzvMwHcFG9IlCIIOAnW9z3RuWCD5jtrZCgAABAgTWLiDQW/sIcP4ECBBILhDL6rwrK9cDuyVvyS+aFTbPzre57hFLhHrxTlWFAAECBAisWUCgt+bed+4ECBAoIOBBPd+DuuVuBS6cFTbx1sM3ZvImm8nbO9iLJdcKAQIECBBYq4BAb60977wJECBQQCBm59kII1egd+3us/PoF4VARgHv2sx1v+gd6HmXZ8arUJsIECBAYCkBgd5S0o5DgAABAgcL3Hn8zoybZDNuLHM7eBj7wIICluivK9CLwNBu2wteYA5FgAABAqkEBHqpukNjCBAgQGAjEA9pZuflejiP/jA7bzNCfc0qYOfbXPeN3rP0YtawQoAAAQIE1igg0FtjrztnAgQIFBCwdC7fQ7nZeQUuHE38LmDn23z3j57Bnvd6uvAJECBAYI0CAr019rpzJkCAQHKBJ28/W2qbbKmt2XnJLxrN+0kgQp6eIZK684SGcX9SCBAgQIDA2gQEemvrcedLgACB5ALegZXnIXk7sDA7L/mFo3kXCtj5Nuf9ZPve0ur76GuFAAECBAisSUCgt6bedq4ECBAoIBDBUasHPPW0eZiP2S/xXjKFQEUBy/fb3Acq3E/dpypeodpMgAABAscKCPSOlfM5AgQIEGguEA9jER5VeHBcUxvNfGk+1FW4oIBZv+sJ9CK8VQgQIECAwFoEBHpr6WnnSYAAgQIClsflfPD+/c+vBUaPJhK4XMA/FuS8t/T4h5F4B6tCgAABAgTWICDQW0MvO0cCBAgUELArZc4H7psPXhcYPZpI4NcC7jE57zGtQ71rd5/9ejD4DQIECBAgMIGAQG+CTnQKBAgQmEHAe65yPmxHCKIQmEXADto57zOtQ73Y4VghQIAAAQKzCwj0Zu9h50eAAIECAveff/DevNv5HrTNzitw8WjiwQKW9ue717QO9Gzkc/Bl4QMECBAgUFBAoFew0zSZAAECMwnEC+tjiVTrBzr1nf7Q7l1UM11pzmVbwIzg0+8P2e+xNvPZHvG+J0CAAIEZBQR6M/aqcyJAgEAhgbOn74V5CWfnXT97UWgUaSqBwwTsfDt/oBeBow19Drsu/DYBAgQI1BIQ6NXqL60lQIDAVAJ2nsz7UO0dVFNdak7mAoEI9WJpZvaZZtp3/H0yZmIqBAgQIEBgVgGB3qw967wIECBQQMC7rI5/UO35kB9LoCPsUAjMLmDn25z3oJb3N68OmP0qdn4ECBBYr4BAb71978wJECAwVMBuk3kfpGMZtEJgLQLuRXnvRS2CvZiFqRAgQIAAgRkFBHoz9qpzIkCAQHKBmP3lpfQ5H6Lj4dfsvOQXkOY1FzBbOOf9qEWgF3X4R4rml4wKCRAgQCCBgEAvQSdoAgECBNYmcP/5B++tSrgRhgfftV2Jzndb4OaD1+5LSe9LpwZ78Q8V8c5WhQABAgQIzCQg0JupN50LAQIECgh4EX3emTBm5xW4gDSxq0Ds7nxqeOTzOe9xEdgqBAgQIEBgJgGB3ky96VwIECBQQCCWPnngzfnAa1lagQtIE7sK+AeHnPemVv/P+P3Pr13Hj8oJECBAgMCSAgK9JbUdiwABAisXiCVPMQus1cOZeto9fFuStvKL0+n/RyBCH/eWdveWTJaxg7dCgAABAgRmERDozdKTzoMAAQIFBGyEkfchOTYFUAgQ+Fvgtz/+EupN+j69R68+GeYECBAgQGAKAYHeFN3oJAgQIJBf4Mnbzx6QEz8gW4qW/xrSwmUF7jx+556V+J517My/mI2sECBAgACBGQQEejP0onMgQIBAcoF4L5WXzeednedl8ckvIM0bJmDn27z3rWMDvfic94UOu6QcmAABAgQaCgj0GmKqigABAgQuFrARRu6H4lheqBAgcLGAf4zIff86NtiLd7oqBAgQIECgsoBAr3LvaTsBAgQKCNg1MvfDcLzXUCFA4HKBuIfFZgrHBkc+l/MeaGby5WPe3xAgQIBADQGBXo1+0koCBAiUFfAeqpwPs5uQId5tqBAgcLWAnW9z38c297NDv5qdfPW497cECBAgkFtAoJe7f7SOAAECpQXsFJn7ITiWEioECOwn4H6W+352aJgXvx8zLxUCBAgQIFBVQKBXtee0mwABAgUEYjnnMQ9ZPrPMg/OjV58KjCJNJJBH4P7zD+5pk+186z6Y5/rSEgIECBA4TECgd5iX3yZAgACBPQViKadgbplg7hjnmJkS7wZTCBA4TODWwzfubROFev/9P/92LzzsEvDbBAgQIJBEQKCXpCM0gwABAjMJRFBkZ8i8YV4EgLHzsEKAwHEC7m+572+H/iNHhLQKAQIECBCoJiDQq9Zj2kuAAIECAhEWHfpA5feXe0A2I6XARaSJqQXsfLvc/Wqp/zd8/PIt9ZjTOAIECBAgsCsg0NsV8TMBAgQInCQQD0URGC31EOY4hz9Ym5130hD3YQLfBeJe5/5z+P0nq1m881UhQIAAAQKVBAR6lXpLWwkQIFBAwPulcj/gmp1X4CLSxDICdr7Nfb87NDyMd78qBAgQIECgioBAr0pPaScBAgQKCHi4zf9wa3ZegQtJE0sJ2Pk2/31v32Av/sFDIUCAAAECVQQEelV6SjsJECBQQCBmN9x5/M5/iQ28J6rAhaSJ5QTMTJ4n1IuAViFAgAABAhUEBHoVekkbCRAgQIAAAQIE0gnE5hgxM9ksvXkCvZil5x8+0l1qGkSAAAECFwgI9C5A8UcECBAgQIAAAQIENgIR3P3+59fzR68+fZ+BHBso2PxnnhBvd0luzLhUCBAgQIBAdgGBXvYe0j4CBAgQIECAAIFFBDbBXbw+IN43GcHd9bMXwrvb84Z3u2He5ucIcBUCBAgQIJBZQKCXuXe0jQABAgQIECBAoIvA9nLZePen4G59od0mvLvoa4wHhQABAgQIZBYQ6GXuHW0jQIAAAQIECBA4SWAz6y7ecye4E9pdFN5d9mcxU1MhQIAAAQJZBQR6WXtGuwgQIECAAAECBPYW2AR3u8tlLwtr/Llw71djIN6TqBAgQIAAgawCAr2sPaNdBAgQIECAAAECFwpEeBfBnVl3QrlfhXKn/n28S1EhQIAAAQIZBQR6GXtFmwgQIECAAAECBM69505gd2ogd+rnY5bexy/fXI0ECBAgQCCdgEAvXZdoEAECBAgQIEBgXQKWywruTg3een7+5oPX67ognS0BAgQIlBAQ6JXoJo0kQIAAAQIECMwhELOdNstlIyixu6wwr2cY16ru3//8OscF6CwIECBAYBoBgd40XelECBAgQIAAAQJ5BCyXFdS1CtMy1HPt7rM8F5eWECBAgACB8/NzgZ5hQIAAAQIECBAgcLTARctlI/zIEMJog1Cx5Rh49OrT0deJDxIgQIAAgdYCAr3WouojQIAAAQIECEwqYLmsgKxlQFatrtggQyFAgAABAlkEBHpZekI7CBAgQIAAAQJJBCyXFdxVC9uWau+dx++SXKWaQYAAAQJrFxDorX0EOH8CBAgQIEBgtQKWywrulgrCZjpOzFRVCBAgQIDAaAGB3ugecHwCBAgQIECAQGeBi4I7u8sK82YK2ZY8l9idWSFAgAABAqMFBHqje8DxCRAgQIAAAQINBSyXFdQtGW6t9VhP3n5ueNWqigABAgQIHC4g0DvczCcIECBAgAABAsMFNrPuYufNeK/XjXsvz+Ol/WsNWJy3IHPJMRA7OSsECBAgQGCkgEBvpL5jEyBAgAABAgR+IbAJ7mJG0NnT99+DO8tlhVdLhleOdfF4izBdIUCAAAECowQEeqPkHZcAAQIECBAgsCNguezFwYlAiUvGMRAzYuOaVQgQIECAwAgBgd4IdcckQIAAAQIEVi2wmXVnuaygKmNQpU37j8tbD9+s+l7m5AkQIEBgnIBAb5y9IxMgQIAAAQKTC2yCO8tl9w9IhEmsqo2Bj1++TX4nc3oECBAgkFFAoJexV7SJAAECBAgQKCdguawgqloQpb1txmxsSKMQIECAAIGlBQR6S4s7HgECBAgQIFBaYDPr7v7zD993l7VBRZtQRLjEsfIYiFm4CgECBAgQWFJAoLektmMRIECAAAECZQQ2wd3uctnKoYO2C82MgT5jIDbIUAgQIECAwJICAr0ltR2LAAECBAgQSCkQ4V0EdzHrLl5yb9Zdn9BDmMR15jEQ9w+FAAECBAgsJSDQW0racQgQIECAAIHhAt5zJ1CaOVBybmPHd8zSs0HG8Nu8BhAgQGA1AgK91XS1EyVAgAABAusRsFx2bLAhWOK/1jEQM3wVAgQIECCwhIBAbwllxyBAgAABAgS6CcSMmM1y2ZsPXlsue1uYtNYwyXnnGPu///m12/1OxQQIECBAYCMg0NtI+EqAAAECBAikFrBcNkdYITTSD8bA1WMg3sGpECBAgACB3gICvd7C6idAgAABAgQOErhouey1u8/OhQhXhwh8+BgDecZAzBpWCBAgQIBATwGBXk9ddRMgQIAAAQJXClgumyeAEAbpC2Og3RiIDTIUAgQIECDQU0Cg11NX3QQIECBAgMB3Actl2wUFQheWxkCNMXD29L3/AxAgQIAAgW4CAr1utComQIAAAQLrE7BctkbQIBDST8ZA/zEQs/RiFrJCgAABAgR6CAj0eqiqkwABAgQITC5wUXAXL4KPB1hBQf+ggDFjY6DGGIidtxUCBAgQINBDQKDXQ1WdBAgQIEBgIgHLZWsEBwIe/WQM5BwDv//5daL/IzgVAgQIEMgiINDL0hPaQYAAAQIEBgtsZt09evXp/M7jd+c37r004+52zoBAcKNfjIE6YyB26VYIECBAgEBrAYFea1H1ESBAgACB5AKb4O7J28/n8dL2CO4sl60TDghy9JUxUG8MxD+UKAQIECBAoKWAQK+lproIECBAgEBygVj6FUFePFz6j4ExYAwYA8uMgbjvKgQIECBAoKWAQK+lproIECBAgAABAgQIECBAgAABAgQIdBYQ6HUGVj0BAgQIECBAgAABAgQIECBAgACBlgICvZaa6iJAgAABAgQIECBAgAABAgQIECDQWUCg1xlY9QQIECBAgAABAgQIECBAgAABAgRaCgj0WmqqiwABAgQIECBAgAABAgQIECBAgEBnAYFeZ2DVEyBAgAABAgQIECBAgAABAgQIEGgpINBrqakuAgQIECBAgAABAgQIECBAgAABAp0FBHqdgVVPgAABAgQIECBAgAABAgQIECBAoKWAQK+lproIECBAgAABAgQIECBAgAABAgQIdBYQ6HUGVj0BAgQIECBAgAABAgQIECBAgACBlgICvZaa6iJAgAABAgQIECBAgAABAgQIECDQWUCg1xlY9QQIECBAgAABAgQIECBAgAABAgRaCgj0WmqqiwABAgQIECBAgAABAgQIECBAgEBnAYFeZ2DVEyBAgAABAgQIECBAgAABAgQIEGgpINBrqakuAgQIECBAgAABAgQIECBAgAABAp0FBHqdgVVPgAABAgQIECBAgAABAgQIECBAoKWAQK+lproIECBAgAABAgQIECBAgAABAgQIdBYQ6HUGVj0BAgQIECBAgAABAgQIECBAgACBlgICvZaa6iJAgAABAgQIECBAgAABAgQIECDQWUCg1xlY9QQIECBAgAABAgQIECBAgAABAgRaCgj0WmqqiwABAgQIECBAgAABAgQIECBAgEBnAYFeZ2DVEyBAgAABAgQIECBAgAABAgQIEGgpINBrqakuAgQIECBAgAABAgQIECBAgAABAp0FBHqdgVVPgAABAgQIECBAgAABAgQIECBAoKWAQK+lproIECBAgAABAgQIECBAgAABAgQIdBYQ6HUGVj0BAgQIECBAgAABAgQIECBAgACBlgICvZaa6iJAgAABAgQIECBAgAABAgQIECDQWUCg1xlY9QQIECBAgAABAgQIECBAgAABAgRaCgj0WmqqiwABAgQIECBAgAABAgQIECBAgEBnAYFeZ2DVEyBAgAABAgQIECBAgAABAgQIEGgpINBrqakuAgQIECBAgAABAgQIECBAgAABAp0FBHqdgVVPgAABAgQIECBAgAABAgQIECBAoKWAQK+lproIECBAgAABAgQIECBAgAABAgQIdBYQ6HUGVj0BAgQIECBAgAABAgQIECBAgACBlgICvZaa6iJAgAABAgQIECBAgAABAgQIECDQWUCg1xlY9QQIECBAgAABAgQIECBAgAABAgRaCgj0WmqqiwABAgQIECBAgAABAgQIECBAgEBnAYFeZ2DVEyBAgAABAgQIECBAgAABAgQIEGgpINBrqakuAgQIECBAgAABAgQIECBAgAABAp0FBHqdgVVPgAABAgQIECBAgAABAgQIECBAoKWAQK+lproIECBAgAABAgQIECBAgAABAgQIdBYQ6HUGVj0BAgQIECBAgAABAgQIECBAgACBlgICvZaa6iJAgAABAgQIECBAgAABAgQIECDQWUCg1xlY9QQIECBAgAABAgQIECBAgAABAgRaCgj0WmqqiwABAgQIECBAgAABAgQIECBAgEBnAYFeZ2DVEyBAgAABAgQIECBAgAABAgQIEGgpINBrqakuAgQIECBAgAABAgQIECBAgAABAp0FBHqdgVVPgAABAgQIECBAgAABAgQIECBAoKWAQK+lproIECBAgAABAgQIECBAgAABAgQIdBYQ6HUGVj0BAgQIECBAgAABAgQIECBAgACBlgICvZaa6iJAgAABAgQIECBAgAABAgQIECDQWUCg1xlY9QQIECBAgAABAgQIECBAgAABAgRaCgj0WmqqiwABAgQIECBAgAABAgQIECBAgEBnAYFeZ2DVEyBAgAABAgQIECBAgAABAgQIEGgpINBrqakuAgQIECBAgAABAgQIECBAgAABAp0FBHqdgVVPgAABAgQIECBAgAABAgQIECBAoKWAQK+lproIECBAgAABAgQIECBAgAABAgQIdBYQ6HUGVj0BAgQIECBAgAABAgQIECBAgACBlgICvZaa6iJAgAABAgQIECBAgAABAgQIECDQWUCg1xlY9QQIECBAgAABAgQIECBAgAABAgRaCgj0WmqqiwABAgQIECBAgAABAgQIECBAgEBnAYFeZ2DVEyBAgAABAgQIECBAgAABAgQIEGgpINBrqakuAgQIECBAgAABAgQIECBAgAABAp0FBHqdgVVPgAABAgQIECBAgAABAgQIECBAoKWAQK+lproIECBAgAABAgQIECBAgAABAgQIdBYQ6HUGVj0BAgQIECBAgAABAgQIECBAgACBlgICvZaa6iJAgAABAgQIECBAgAABAgQIECDQWUCg1xlY9QQIECBAgAABAgQIECBAgAABAgRaCgj0WmqqiwABAgQIECBAgAABAgQIECBAgEBnAYFeZ2DVEyBAgAABAgQIECBAgAABAgQIEGgpINBrqakuAgQIECBAgAABAgQIECBAgAABAp0FBHqdgVVPgAABAgQIECBAgAABAgQIECBAoKWAQK+lproIECBAgAABAgQIECBAgAABAgQIdBYQ6HUGVj0BAgQIECBAgAABAgQIECBAgACBlgICvZaa6iJAgAABAgQIECBAgAABAgQIECDQWUCg1xlY9QQIECBAgAABAgQIECBAgAABAgRaCgj0WmqqiwABAgQIECBAgAABAgQIECBAgEBnAYFeZ2DVEyBAgAABAgQIECBAgAABAgQIEGgpINBrqakuAgQIECBAgAABAgQIECBAgAABAp0FBHqdgVVPgAABAgQIECBAgAABAgQIECBAoKWAQK+lproIECBAgAABAgQIECBAgAABAgQIdBYQ6HUGVj0BAgQIECBAgAABAgQIECBAgACBlgICvZaa6iJAgAABAgQIECBAgAABAgQIECDQWUCg1xlY9QQIECBAgAABAgQIECBAgAABAgRaCgj0WmqqiwABAgQIECBAgAABAgQIECBAgEBnAYFeZ2DVEyBAgAABAgQIECBAgAABAgQIEGgpINBrqakuAgQIECBAgAABAgQIECBAgAABAp0FBHqdgVVPgAABAgQIECBAgAABAgQIECBAoKWAQK+lproIECBAgAABAgQIECBAgAABAgQIdBYQ6HUGVj0BAgQIECBAgAABAgQIECBAgACBlgICvZaa6iJAgAABAgQIECBAgAABAgQIECDQWUCg1xlY9QQIECBAgAABAgQIECBAgAABAgRaCgj0WmqqiwABAgQIECBAgAABAgQIECBAgEBnAYFeZ2DVEyBAgAABAgQIECBAgAABAgQIEGgpINBrqakuAgQIECBAgAABAgQIECBAgAABAp0FBHqdgVVPgAABAgQIECBAgAABAgQIECBAoKWAQK+lproIECBAgAABAgQIECBAgAABAgQIdBYQ6HUGVj0BAgQIECBAgAABAgQIECBAgACBlgICvZaa6iJAgAABAgQIECBAgAABAgQIECDQWUCg1xlY9QQIECBAgAABAgQIECBAgAABAgRaCgj0WmqqiwABAgQIECBAgAABAgQIECBAgEBnAYFeZ2DVEyBAgAABAgQIECBAgAABAgQIEGgpINBrqakuAgQIECBAgAABAgQIECBAgAABAp0FBHqdgVVPgAABAgQIECBAgAABAgQIECBAoKWAQK+lproIECBAgAABAgQIECBAgAABAgQIdBYQ6HUGVj0BAgQIECBAgAABAgQIECBAgACBlgICvZaa6iJAgAABAgQIECBAgAABAgQIECDQWUCg1xlY9QQIECBAgAABAgQIECBAgAABAgRaCgj0WmqqiwABAgQIECBAgAABAgQIECBAgEBnAYFeZ2DVEyBAgAABAgQIECBAgAABAgQIEGgpINBrqakuAgQIECBAgAABAgQIECBAgAABAp0FBHqdgVVPgAABAgQIECBAgAABAgQIECBAoKWAQK+lproIECBAgAABAgQIECDg0x3gAAAHXUlEQVRAgAABAgQIdBYQ6HUGVj0BAgQIECBAgAABAgQIECBAgACBlgICvZaa6iJAgAABAgQIECBAgAABAgQIECDQWUCg1xlY9QQIECBAgAABAgQIECBAgAABAgRaCgj0WmqqiwABAgQIECBAgAABAgQIECBAgEBnAYFeZ2DVEyBAgAABAgQIECBAgAABAgQIEGgpINBrqakuAgQIECBAgAABAgQIECBAgAABAp0FBHqdgVVPgAABAgQIECBAgAABAgQIECBAoKWAQK+lproIECBAgAABAgQIECBAgAABAgQIdBYQ6HUGVj0BAgQIECBAgAABAgQIECBAgACBlgICvZaa6iJAgAABAgQIECBAgAABAgQIECDQWUCg1xlY9QQIECBAgAABAgQIECBAgAABAgRaCgj0WmqqiwABAgQIECBAgAABAgQIECBAgEBnAYFeZ2DVEyBAgAABAgQIECBAgAABAgQIEGgpINBrqakuAgQIECBAgAABAgQIECBAgAABAp0FBHqdgVVPgAABAgQIECBAgAABAgQIECBAoKWAQK+lproIECBAgAABAgQIECBAgAABAgQIdBYQ6HUGVj0BAgQIECBAgAABAgQIECBAgACBlgICvZaa6iJAgAABAgQIECBAgAABAgQIECDQWUCg1xlY9QQIECBAgAABAgQIECBAgAABAgRaCgj0WmqqiwABAgQIECBAgAABAgQIECBAgEBnAYFeZ2DVEyBAgAABAgQIECBAgAABAgQIEGgpINBrqakuAgQIECBAgAABAgQIECBAgAABAp0FBHqdgVVPgAABAgQIECBAgAABAgQIECBAoKWAQK+lproIECBAgAABAgQIECBAgAABAgQIdBYQ6HUGVj0BAgQIECBAgAABAgQIECBAgACBlgICvZaa6iJAgAABAgQIECBAgAABAgQIECDQWUCg1xlY9QQIECBAgAABAgQIECBAgAABAgRaCgj0WmqqiwABAgQIECBAgAABAgQIECBAgEBnAYFeZ2DVEyBAgAABAgQIECBAgAABAgQIEGgpINBrqakuAgQIECBAgAABAgQIECBAgAABAp0FBHqdgVVPgAABAgQIECBAgAABAgQIECBAoKWAQK+lproIECBAgAABAgQIECBAgAABAgQIdBYQ6HUGVj0BAgQIECBAgAABAgQIECBAgACBlgICvZaa6iJAgAABAgQIECBAgAABAgQIECDQWUCg1xlY9QQIECBAgAABAgQIECBAgAABAgRaCgj0WmqqiwABAgQIECBAgAABAgQIECBAgEBnAYFeZ2DVEyBAgAABAgQIEPh/7dghAQAAAIOw/q1fgrsVQExCgAABAgQIECBQChh6paYWAQIECBAgQIAAAQIECBAgQIAAgbOAoXcGlidAgAABAgQIECBAgAABAgQIECBQChh6paYWAQIECBAgQIAAAQIECBAgQIAAgbOAoXcGlidAgAABAgQIECBAgAABAgQIECBQChh6paYWAQIECBAgQIAAAQIECBAgQIAAgbOAoXcGlidAgAABAgQIECBAgAABAgQIECBQChh6paYWAQIECBAgQIAAAQIECBAgQIAAgbOAoXcGlidAgAABAgQIECBAgAABAgQIECBQChh6paYWAQIECBAgQIAAAQIECBAgQIAAgbOAoXcGlidAgAABAgQIECBAgAABAgQIECBQChh6paYWAQIECBAgQIAAAQIECBAgQIAAgbOAoXcGlidAgAABAgQIECBAgAABAgQIECBQChh6paYWAQIECBAgQIAAAQIECBAgQIAAgbOAoXcGlidAgAABAgQIECBAgAABAgQIECBQChh6paYWAQIECBAgQIAAAQIECBAgQIAAgbOAoXcGlidAgAABAgQIECBAgAABAgQIECBQChh6paYWAQIECBAgQIAAAQIECBAgQIAAgbOAoXcGlidAgAABAgQIECBAgAABAgQIECBQChh6paYWAQIECBAgQIAAAQIECBAgQIAAgbOAoXcGlidAgAABAgQIECBAgAABAgQIECBQChh6paYWAQIECBAgQIAAAQIECBAgQIAAgbOAoXcGlidAgAABAgQIECBAgAABAgQIECBQChh6paYWAQIECBAgQIAAAQIECBAgQIAAgbOAoXcGlidAgAABAgQIECBAgAABAgQIECBQChh6paYWAQIECBAgQIAAAQIECBAgQIAAgbOAoXcGlidAgAABAgQIECBAgAABAgQIECBQChh6paYWAQIECBAgQIAAAQIECBAgQIAAgbOAoXcGlidAgAABAgQIECBAgAABAgQIECBQChh6paYWAQIECBAgQIAAAQIECBAgQIAAgbOAoXcGlidAgAABAgQIECBAgAABAgQIECBQChh6paYWAQIECBAgQIAAAQIECBAgQIAAgbOAoXcGlidAgAABAgQIECBAgAABAgQIECBQChh6paYWAQIECBAgQIAAAQIECBAgQIAAgbOAoXcGlidAgAABAgQIECBAgAABAgQIECBQCgz9lryC0HQA+AAAAABJRU5ErkJggg==;" vertex="1" parent="1">
          <mxGeometry x="737.99" y="30" width="54.02" height="30" as="geometry" />
        </mxCell>
      </root>
    </mxGraphModel>
  </diagram>
</mxfile>
